<svg width="594" height="200" viewBox="0 0 594 200" fill="none" xmlns="http://www.w3.org/2000/svg">
<path fill-rule="evenodd" clip-rule="evenodd" d="M169.1 106.84C157.445 114.842 141.404 113.652 131.055 103.268C128.086 100.289 125.872 96.8404 124.411 93.1601C136.065 85.1577 152.106 86.3482 162.455 96.7318C165.424 99.7107 167.639 103.16 169.1 106.84ZM169.1 106.84C170.609 105.804 172.045 104.613 173.385 103.268L194.55 82.0322L173.385 60.7962C161.696 49.0679 142.744 49.0679 131.055 60.7962C122.335 69.5457 120.12 82.3506 124.411 93.1601C122.902 94.1965 121.466 95.387 120.126 96.7318L98.9609 117.968L120.126 139.204C131.815 150.932 150.766 150.932 162.455 139.204C171.175 130.454 173.39 117.649 169.1 106.84Z" fill="black"/>
<ellipse cx="91.6493" cy="94.0577" rx="11.9188" ry="11.9589" fill="black"/>
<path d="M238.674 128.218C233.674 128.218 229.052 127.082 224.43 124.905L225.279 113.926H227.165C230.561 121.119 234.523 125.568 239.994 125.568C244.145 125.568 247.069 123.486 247.069 118.659C247.069 114.589 245.183 112.128 239.617 109.099L233.486 105.786C227.071 102.284 224.524 99.2555 224.524 93.9551C224.524 87.3297 230.561 81.9346 238.862 81.9346C242.636 81.9346 246.881 82.7865 251.126 84.6795L250.465 94.7123H248.579C244.334 86.3832 240.843 84.4902 237.07 84.4902C233.769 84.4902 231.033 86.4778 231.033 90.2638C231.033 93.5765 232.637 95.5641 237.447 98.309L243.485 101.716C250.56 105.692 254.144 109.194 254.144 115.535C254.144 124.148 246.881 128.218 238.674 128.218Z" fill="black"/>
<path d="M264.935 148C262.86 148 260.69 147.621 258.615 146.58L262.199 138.724H262.482C264.463 140.523 266.633 141.28 268.991 141.28C272.387 141.28 275.217 139.671 277.104 134.749L279.368 128.975L262.199 86.2885L256.539 85.4367V83.0704H278.613V85.4367L271.632 86.9511L283.518 117.05L294.838 86.9511L288.612 85.4367V83.0704H304.931V85.4367L298.611 86.2885L279.839 135.695C276.066 145.539 271.349 148 264.935 148Z" fill="black"/>
<path d="M306.279 127.082V124.716L312.882 123.864V67.4533L305.901 65.0871V63.6673L319.485 58.083H320.9V123.864L327.503 124.716V127.082H306.279Z" fill="black"/>
<path d="M332.625 127.082V124.716L339.228 123.864V67.4533L332.248 65.0871V63.6673L345.832 58.083H347.247V123.864L353.85 124.716V127.082H332.625Z" fill="black"/>
<path d="M370.48 128.218C364.349 128.218 360.387 124.338 360.387 118.469C360.387 112.412 363.688 108.815 373.31 104.84L383.309 100.675V93.7658C383.309 87.1404 380.385 84.6795 376.329 84.6795C372.273 84.6795 368.877 87.1404 368.877 93.6712C368.877 94.3337 368.877 94.9963 368.971 95.7534L360.292 98.025L360.009 97.8357C360.481 87.235 370.103 81.9346 378.215 81.9346C385.856 81.9346 391.328 85.2474 391.328 93.2926V122.539H398.78V124.243C393.686 126.988 391.422 128.124 388.592 128.124C385.762 128.124 384.158 126.514 384.158 123.864V121.971C378.498 126.704 374.914 128.218 370.48 128.218ZM375.386 122.823C378.215 122.823 380.574 121.971 383.309 120.268V103.799L374.914 107.49C370.858 109.288 368.594 111.655 368.594 115.914C368.594 120.078 371.046 122.823 375.386 122.823Z" fill="black"/>
<path d="M423.594 128.407C419.255 128.407 415.293 127.366 411.803 125.379L407.18 127.934H405.765V67.4533L398.785 65.0871V63.6673L412.369 58.083H413.784L413.595 87.7083C417.557 84.3009 422.462 81.9346 427.179 81.9346C437.272 81.9346 445.479 90.4531 445.479 104.556C445.479 117.996 436.612 128.407 423.594 128.407ZM424.443 125.379C431.612 125.379 436.706 119.132 436.706 107.963C436.706 95.1856 430.763 87.0457 422.179 87.0457C418.878 87.0457 416.142 88.1815 413.784 90.0745V116.671C416.048 122.445 419.915 125.379 424.443 125.379Z" fill="black"/>
<path d="M450.724 127.082V124.716L457.327 123.864V67.4533L450.347 65.0871V63.6673L463.931 58.083H465.346V123.864L471.949 124.716V127.082H450.724Z" fill="black"/>
<path d="M497.352 128.218C485.749 128.218 476.882 119.416 476.882 105.408C476.882 89.8852 487.447 81.9346 497.069 81.9346C506.314 81.9346 513.86 86.4778 513.86 100.107L513.577 100.297H485.655V102.095C485.655 112.79 490.937 122.634 500.465 122.634C504.05 122.634 508.294 121.687 511.973 116.955L513.954 118.28C509.804 125.852 503.767 128.218 497.352 128.218ZM485.938 97.2678H504.71V96.0374C504.71 88.844 501.691 84.5848 496.314 84.5848C491.032 84.5848 487.07 89.2226 485.938 97.2678Z" fill="black"/>
</svg>
